OpenSim_Sub10_CSBaseline_GRF.mot
version=1
nRows=64
nColumns=19
inDegrees=no
endheader
time	lFx	lFy	lFz	lCOPx	lCOPy	lCOPz	rFx	rFy	rFz	rCOPx	rCOPy	rCOPz	lMx	lMy	lMz	rMx	rMy	rMz
45.55000000	58.06578037	370.09993391	22.33761228	0.53108658	0	-0.59461442	0.13454026	0.66768583	0.03531649	0.00000237	0	-0.00000100	0	3.33243769	0	0	0.00000037	0.00000000
45.56000000	54.05552257	328.61156232	18.88638457	0.52668776	0	-0.59392740	0.12146981	0.69509555	0.01970728	0.00000216	0	-0.00000094	0	2.89637023	0	0	-0.00000069	-0.00000000
45.57000000	49.17199546	286.32501587	15.71426227	0.52277237	0	-0.59330151	0.14904476	0.73279271	-0.00565594	-0.00000240	0	0.00000092	0	2.34206530	0	0	-0.00000354	-0.00000000
45.58000000	44.19550429	244.04488827	12.78278645	0.51983748	0	-0.59351028	0.18386325	0.75553330	0.02989268	-0.00001552	0	0.00000637	0	1.77496252	0	0	-0.00000819	-0.00000000
45.59000000	39.84804821	202.69737710	10.16091339	0.51905316	0	-0.59616191	0.20345040	0.77318670	0.09285560	-0.00003836	0	0.00001599	0	1.21837588	0	0	-0.00001164	0.00000000
45.60000000	35.57410224	163.63861344	8.09843028	0.52184751	0	-0.60243693	0.21144901	0.82292035	0.15205187	-0.00005851	0	0.00002476	0	0.60086631	0	0	-0.00000456	-0.00000000
45.61000000	30.48742205	128.20868425	6.69855367	0.52708162	0	-0.60992453	0.21860437	0.88498364	0.15991598	-0.00003350	0	0.00001511	0	-0.11233492	0	0	0.00003020	0.00000000
45.62000000	24.41371299	97.25209100	5.77313594	0.52455138	0	-0.60731201	0.23228953	0.94543238	0.12412094	0.00011938	0	-0.00004766	0	-0.81973852	0	0	0.00010966	-0.00000000
45.63000000	17.86492400	71.19118470	5.13341776	0.49172142	0	-0.57010596	0.24491977	1.00883869	0.10395152	0.00049219	0	-0.00020307	0	-1.26856403	0	0	0.00022091	-0.00000000
45.64000000	11.72517647	50.00382200	4.77961938	0.40126306	0	-0.46585212	0.24763246	1.07808316	0.10848000	0.00105287	0	-0.00044044	0	-1.27719842	0	0	0.00025993	-0.00000000
45.65000000	6.72429146	33.05300895	4.58443426	0.24864292	0	-0.28757715	0.22936867	1.12936195	0.09587718	0.00135428	0	-0.00057722	0	-0.85977440	0	0	-0.00004259	0.00000000
45.66000000	3.62703185	19.68236771	4.20753045	0.09883959	0	-0.11360239	0.17041435	1.08857370	0.08323940	0.00015019	0	-0.00009556	0	-0.37148279	0	0	-0.00111589	-0.00000000
45.67000000	3.02943937	9.55432355	3.47367854	0.01416021	0	-0.01580139	0.04323072	0.82742124	0.01420314	-0.00467587	0	0.00189646	0	-0.07292963	0	0	-0.00325186	0
45.68000000	4.40433780	2.81406633	2.58387895	-0.01464325	0	0.01721259	-0.16485819	0.06048490	-0.17504270	-0.01487234	0	0.00616335	0	0.03913653	0	0	-0.00571567	0
45.69000000	5.91680059	-0.32752174	1.98210910	-0.01554687	0	0.01805235	-0.40006817	-1.01543072	-0.40996627	-0.02776212	0	0.01166170	0	0.05080404	0	0	-0.00515278	0
45.70000000	6.77600231	-1.04322618	1.88188472	-0.00867973	0	0.01002327	-0.41778779	-1.14443375	-0.40780716	-0.02852636	0	0.01230085	0	0.03066184	0	0	0.00591148	0
45.71000000	7.08030777	-0.77481036	1.96020979	-0.00290179	0	0.00332486	0.43550049	2.62464077	0.48204856	0.01801243	0	-0.00659316	0	0.01133641	0	0	0.03762114	0
45.72000000	7.09456836	-0.32820319	2.15730741	-0.00005180	0	0.00003877	3.17093026	14.60038026	3.13376051	0.16326611	0	-0.06681095	0	0.00105876	0	0	0.09266230	0.00000000
45.73000000	7.03307499	-0.03416308	2.29265177	0.00072347	0	-0.00084556	8.04172711	37.48200927	7.68767398	0.43110763	0	-0.17936505	0	-0.00213557	0	0	0.14078634	0
45.74000000	6.98865425	0.12225233	2.36586031	0.00059728	0	-0.00069233	11.36783604	68.64668947	12.62065194	0.71776831	0	-0.30274059	0	-0.00200195	0	0	0.08327777	-0.00000000
45.75000000	6.96272841	0.19661163	2.44969908	0.00029102	0	-0.00033550	9.10151110	102.74033678	16.61720614	0.88787049	0	-0.37807236	0	-0.00105175	0	0	-0.14120409	0
45.76000000	6.93057243	0.29229044	2.53480073	0.00007725	0	-0.00008806	2.12073607	137.12847311	18.35626203	0.94812625	0	-0.40580113	0	-0.00032048	0	0	-0.37845962	-0.00000000
45.77000000	6.89560138	0.43682913	2.59721158	-0.00001443	0	0.00001744	-6.77635289	172.64642821	17.47884490	0.95147342	0	-0.40759471	0	0.00001884	0	0	-0.49277896	0
45.78000000	6.84152234	0.54008296	2.53548776	-0.00003202	0	0.00003729	-15.82239951	209.87593221	13.86858880	0.93755957	0	-0.40060356	0	0.00009972	0	0	-0.40896437	0
45.79000000	6.75769388	0.56068802	2.39071885	-0.00002202	0	0.00002548	-24.37514651	246.60948276	7.85696134	0.92457130	0	-0.39341614	0	0.00007547	0	0	-0.21247769	0
45.80000000	6.63884722	0.50641586	2.22665829	-0.00000932	0	0.00001072	-32.45650818	279.84209033	0.81668594	0.91698565	0	-0.38834487	0	0.00003458	0	0	-0.07138506	0
45.81000000	6.46117074	0.38121422	2.03155037	-0.00000171	0	0.00000193	-40.31063492	307.85189060	-5.91238311	0.91364065	0	-0.38515725	0	0.00000799	0	0	-0.09749026	0
45.82000000	6.22818678	0.30910743	1.83680647	0.00000108	0	-0.00000127	-47.74924399	330.28976006	-11.69028763	0.91218344	0	-0.38322656	0	-0.00000267	0	0	-0.28339629	0
45.83000000	5.94537638	0.29455886	1.63259873	0.00000132	0	-0.00000154	-54.18328081	349.04237987	-16.72707133	0.91096985	0	-0.38183372	0	-0.00000426	0	0	-0.46985006	0
45.84000000	5.61286338	0.26096093	1.42696589	0.00000079	0	-0.00000091	-59.86403424	367.82813377	-22.09849388	0.90877155	0	-0.38059350	0	-0.00000272	0	0	-0.57224519	0
45.85000000	5.25505684	0.23595671	1.20237112	0.00000028	0	-0.00000032	-64.84432952	389.92641773	-27.74853706	0.90541781	0	-0.37944562	0	-0.00000106	0	0	-0.65820636	0
45.86000000	4.90950000	0.22443084	0.98625328	0.00000001	0	-0.00000002	-68.46162152	415.98834013	-32.77584105	0.90102692	0	-0.37850889	0	-0.00000012	0	0	-0.77294851	0.00000000
45.87000000	4.58287716	0.22357644	0.79159363	-0.00000010	0	0.00000009	-70.12962731	444.58148832	-36.71214848	0.89591394	0	-0.37782471	0	0.00000016	0	0	-0.93022025	0.00000000
45.88000000	4.24518897	0.24889452	0.56996850	-0.00000013	0	0.00000011	-70.07372237	473.96111338	-39.52697920	0.89041662	0	-0.37728190	0	0.00000006	0	0	-1.11340569	0
45.89000000	3.86223325	0.29767336	0.30856164	-0.00000011	0	0.00000009	-68.81950229	502.56996060	-41.47158429	0.88468043	0	-0.37679978	0	-0.00000024	0	0	-1.30366321	0
45.90000000	3.46221599	0.36880604	0.00337427	0.00000002	0	-0.00000000	-66.71558069	529.14511520	-42.91986924	0.87857436	0	-0.37635775	0	-0.00000055	0	0	-1.41395397	0.00000000
45.91000000	3.14954281	0.47305559	-0.28723195	0.00000041	0	-0.00000027	-64.12652942	552.97401926	-44.03903734	0.87254286	0	-0.37590397	0	-0.00000053	0	0	-1.44456792	0
45.92000000	2.98189663	0.56054852	-0.48371792	0.00000116	0	-0.00000076	-61.52830792	573.49213250	-45.03725513	0.86681939	0	-0.37540864	0	0.00000059	0	0	-1.47734288	0
45.93000000	2.91872483	0.58034495	-0.61093866	0.00000199	0	-0.00000132	-59.10410718	590.29361132	-46.34645164	0.86123663	0	-0.37489093	0	0.00000383	0	0	-1.48680009	0
45.94000000	2.89580359	0.67693113	-0.69957685	0.00000169	0	-0.00000115	-56.83806254	603.62524495	-48.13466901	0.85552388	0	-0.37433547	0	0.00000947	0	0	-1.49564719	-0.00000000
45.95000000	2.91903610	0.87811970	-0.74968232	-0.00000238	0	0.00000147	-54.59523737	614.40461620	-50.29487351	0.84959129	0	-0.37372222	0	0.00001443	0	0	-1.60219151	0
45.96000000	3.00424354	0.97614015	-0.71550478	-0.00001368	0	0.00000887	-52.34081408	623.38628149	-52.79763876	0.84356551	0	-0.37311507	0	0.00000821	0	0	-1.78420879	-0.00000000
45.97000000	3.15347783	0.99542768	-0.61744212	-0.00003283	0	0.00002155	-50.15655941	630.83972121	-55.49801937	0.83759844	0	-0.37255214	0	-0.00002961	0	0	-1.96986402	0
45.98000000	3.37102198	1.00589170	-0.49096404	-0.00004854	0	0.00003228	-48.10138745	636.86152347	-58.14397933	0.83173914	0	-0.37208394	0	-0.00012171	0	0	-2.17327035	0
45.99000000	3.64532487	0.92722750	-0.34738304	-0.00002400	0	0.00001703	-45.99476428	641.36203401	-60.43589113	0.82569401	0	-0.37175195	0	-0.00026001	0	0	-2.39061325	-0.00000000
46.00000000	3.92643041	0.76327006	-0.18328947	0.00011066	0	-0.00007030	-43.70174110	644.30640856	-61.92037187	0.81950779	0	-0.37151706	0	-0.00033383	0	0	-2.55062385	-0.00000000
46.01000000	4.20393488	0.66488526	0.02195183	0.00042951	0	-0.00027961	-41.29880017	645.53037396	-62.39265828	0.81337550	0	-0.37133017	0	-0.00003521	0	0	-2.66773830	0
46.02000000	4.50567751	0.69866262	0.24906517	0.00089419	0	-0.00058872	-38.83631797	644.82998428	-61.89314366	0.80724337	0	-0.37117780	0	0.00115813	0	0	-2.75214355	0.00000000
46.03000000	4.82672479	0.79039723	0.50561631	0.00110655	0	-0.00074058	-36.20587531	642.17725951	-60.63427185	0.80075804	0	-0.37109243	0	0.00367610	0	0	-2.70321553	0
46.04000000	5.13891960	0.78542161	0.81413598	-0.00000588	0	-0.00003299	-33.30377711	637.82771457	-58.93022687	0.79399419	0	-0.37106594	0	0.00685318	0	0	-2.52094648	0
46.05000000	5.42240526	0.50474462	1.12329873	-0.00421388	0	0.00270730	-30.25665725	632.15370951	-57.01821928	0.78716895	0	-0.37107118	0	0.00702361	0	0	-2.30391329	0
46.06000000	5.68308008	-0.18601746	1.43554609	-0.01286738	0	0.00840635	-27.22100214	625.71055158	-55.08389848	0.78031169	0	-0.37107888	0	-0.00450220	0	0	-2.08241079	0
46.07000000	5.92136892	-1.26232694	1.76443200	-0.02338103	0	0.01544811	-24.27436234	619.03569919	-53.37927184	0.77351165	0	-0.37106374	0	-0.04040429	0	0	-1.81775349	0.00000000
46.08000000	6.17452880	-2.09998217	2.02296274	-0.02272778	0	0.01537776	-21.21964982	612.45760997	-51.94535953	0.76676640	0	-0.37101192	0	-0.10651938	0	0	-1.57828661	0
46.09000000	6.51413899	-0.68312956	1.87292286	0.01913692	0	-0.01153893	-18.00638928	606.27894894	-50.83019980	0.76015695	0	-0.37091852	0	-0.17261989	0	0	-1.37356356	-0.00000000
46.10000000	7.09410321	6.85678220	0.84087510	0.14471828	0	-0.09360665	-14.79349574	600.60162888	-50.10940915	0.75384426	0	-0.37079595	0	-0.12411173	0	0	-1.16365612	0.00000000
46.11000000	8.05425595	24.52323480	-1.20451731	0.37063083	0	-0.24291001	-11.82973975	595.38871957	-49.76190127	0.74796831	0	-0.37060415	0	0.27511118	0	0	-1.00797896	-0.00000000
46.12000000	8.65864176	52.85531861	-3.14318979	0.62954043	0	-0.41660105	-9.05049301	590.69236533	-49.67697129	0.74230501	0	-0.37033959	0	1.31938161	0	0	-0.90300033	-0.00000000
46.13000000	6.90398523	89.46438062	-4.23383783	0.82215881	0	-0.54931959	-6.31911779	587.02895098	-49.74502388	0.73663786	0	-0.37001766	0	3.14076750	0	0	-0.71064631	0
46.14000000	1.85868216	132.50505075	-3.73152001	0.91315809	0	-0.61573537	-3.68543293	585.25480017	-49.87265216	0.73101955	0	-0.36966818	0	4.99914481	0	0	-0.41661686	-0.00000000
46.15000000	-5.51218011	181.13644642	-0.21464360	0.93486489	0	-0.63526823	-1.16327734	586.03150530	-49.96615092	0.72554518	0	-0.36928596	0	6.06768807	0	0	-0.11737399	0.00000000
46.16000000	-13.83938883	232.82399559	6.39572734	0.92728859	0	-0.63420471	1.34942508	589.21672497	-50.08576407	0.72007328	0	-0.36889947	0	6.09931350	0	0	0.17899953	-0.00000000
46.17000000	-22.39429490	282.37556193	14.84717300	0.91426954	0	-0.62889753	3.86110853	594.05105975	-50.29429179	0.71475104	0	-0.36848667	0	5.27716841	0	0	0.48736560	0
46.18000000	-30.55032597	324.65103645	22.80721265	0.90449259	0	-0.62549347	6.33813840	599.71947866	-50.49147140	0.70962418	0	-0.36802651	0	4.25263983	0	0	0.74312468	0
